/* XPM */
static char *b301c178a8864193e20c9d6bb3918c5aWKMOxItPDLt9CfF5[] = {
/* columns rows colors chars-per-pixel */
"64 64 132 2 ",
"   c #000000",
".  c #0C0601",
"X  c #0C0A08",
"o  c #130A02",
"O  c #1A0D03",
"+  c #100D0C",
"@  c #17100A",
"#  c #1C1209",
"$  c #241407",
"%  c #2B1807",
"&  c #251609",
"*  c #25190D",
"=  c #2B1909",
"-  c #341F0C",
";  c #2E1F12",
":  c #37200D",
">  c #38200B",
",  c #352211",
"<  c #3B2512",
"1  c #412915",
"2  c #482C13",
"3  c #44311F",
"4  c #4C331E",
"5  c #503114",
"6  c #51341A",
"7  c #58371A",
"8  c #56391F",
"9  c #603C0D",
"0  c #473120",
"q  c #4D3826",
"w  c #513720",
"e  c #583721",
"r  c #573D27",
"t  c #543D29",
"y  c #57402B",
"u  c #5D422C",
"i  c #5B4532",
"p  c #574539",
"a  c #5B493D",
"s  c #614125",
"d  c #62442D",
"f  c #684829",
"g  c #724021",
"h  c #76552D",
"j  c #644B37",
"k  c #6A4E36",
"l  c #664F3A",
"z  c #744E37",
"x  c #7D4B33",
"c  c #7D4B3A",
"v  c #67503C",
"b  c #6F533A",
"n  c #72563E",
"m  c #7E503C",
"M  c #735740",
"N  c #755B45",
"B  c #795E47",
"V  c #775D49",
"C  c #795F4A",
"Z  c #6D5D52",
"A  c #76604D",
"S  c #7B624D",
"D  c #7D6551",
"F  c #71665E",
"G  c #746962",
"H  c #7B6D63",
"J  c #7F736C",
"K  c #854D3C",
"L  c #805F31",
"P  c #96753C",
"I  c #885F45",
"U  c #895B4B",
"Y  c #A25D54",
"T  c #976749",
"R  c #957440",
"E  c #977C46",
"W  c #816754",
"Q  c #846E5A",
"!  c #9A6154",
"~  c #9F6D5F",
"^  c #8A725D",
"/  c #A56B5A",
"(  c #A7735C",
")  c #8A7563",
"_  c #80756E",
"`  c #8F7C6A",
"'  c #917965",
"]  c #937D6C",
"[  c #897D75",
"{  c #A56E63",
"}  c #B27B67",
"|  c #C17577",
" . c #C97378",
".. c #A38348",
"X. c #97806E",
"o. c #8D8178",
"O. c #968474",
"+. c #95887F",
"@. c #9A8A7B",
"#. c #B48369",
"$. c #A28E7E",
"%. c #948880",
"&. c #9E928A",
"*. c #A59384",
"=. c #A59A8E",
"-. c #AB9A8E",
";. c #B09D8F",
":. c #AC9D92",
">. c #ADA196",
",. c #B1A195",
"<. c #B4A79E",
"1. c #B5A89F",
"2. c #BAA99C",
"3. c #B6AAA1",
"4. c #B9ADA5",
"5. c #BAAFA8",
"6. c #BDB2AA",
"7. c #F08799",
"8. c #D4A690",
"9. c #E79BA6",
"0. c #FF9EB7",
"q. c #C1B8B1",
"w. c #F1A3B1",
"e. c #FCA7B5",
"r. c #F3AFBC",
"t. c #FAB7B3",
"y. c #FFB8BE",
"u. c #FDC6B4",
"i. c #E6BCC8",
"p. c #F1BCC5",
"a. c #FFC3C2",
"s. c #FAD7EA",
/* pixels */
"                                                                                                                                ",
"                                                                                                                                ",
"                                                                                                                                ",
"                                                                                                                                ",
"                                                                                                                                ",
"                                                                                                                                ",
"                                                                                                                                ",
"                                                                                                                                ",
"                                                                                                                                ",
"                                                                                                                                ",
"                                                                                                                                ",
"                                                                                                                                ",
"                                                                                                                                ",
"                                                                                                                                ",
"                                                                                                                                ",
"                                                                                                                                ",
"                                                                                                                                ",
"                                                                                                                                ",
"                                                                                                                                ",
"                                                                                                                                ",
"                                                                                                                                ",
"                                                                                                                                ",
"                                                                                                                                ",
"                                                                                                                                ",
"                                                                                                                                ",
"                                                                                                                                ",
"                                                                                                                                ",
"                                                                                                                                ",
"                                                                                                                                ",
"                                                                                                                                ",
"                                                                                                                                ",
"                                                                                                                                ",
"                                                            O 7 O                                                               ",
"                                                          . d :.b .           O u $                                             ",
"                                                          4 ;.q.*.- . . . . o A 2.r                                             ",
"                                                    .   % ] 5.<.4.V u i u 6 N 4.q.Q O                                           ",
"                                                    < , r 6.3.1.3.&.&.o.+.H =.4.4.*.<                                           ",
"                                                  X & d N ] 4.4.6.3.3.3.4.1.1.3.1.3.u . o #                                     ",
"                                                  @ < s O.:.4.] Q 3.4.6.4.5.3.3.3.6.) : 3 *                                     ",
"                                                  . u $.) >.4.d 2 4.` S V ) ,.e V 6.*.< . .                                     ",
"                                                  < $.q.3.<.3.:.:.Q K Y ! c M d ) 4.4.t - #                                     ",
"                                                . W 5.1.<.<.<.6.) { e.7.9.u.#.W 6.<.5.^ o                                       ",
"                                                , :.3.<.1.<.2.<.m p.i.g 9 } y.U =.3.4.$.%                                       ",
"                                              $ t %.4.<.<.<.1.:.U w.t.( I  .0.~ @.4.3.2.y                                       ",
"                                              < a [ 4.1.<.<.<.5.B x 8.a.s.r.| z >.3.<.6.b o                                     ",
"                                            . t G =.3.1.<.<.3.-.k E T / } ~ L 8 :.3.<.4.] $                                     ",
"                                            , *.3.3.<.<.<.3.3.@.D f R ..P P h N ` 5.1.4.-.2                                     ",
"                                          . t ,.4.<.<.<.<.<.<.5.@.] O.) ^ ` ) @.>.3.<.1.4.j                                     ",
"                                          & t _ 4.1.1.1.1.<.<.<.3.4.5.5.5.4.4.3.1.<.<.<.6.S O                                   ",
"                                          : p J 4.3.<.<.<.<.<.<.3.<.<.<.<.1.1.<.1.<.<.<.5.] $                                   ",
"                                          w H :.3.<.<.<.<.<.<.<.<.<.<.<.<.<.<.<.<.1.1.<.4.;.;                                   ",
"                                        + A q.2.<.<.<.<.<.<.<.1.<.<.<.<.<.<.<.<.<.<.1.1.1.,.q                                   ",
"                                        * ^ 6.<.<.1.<.<.<.<.<.<.<.<.<.<.<.<.1.<.<.<.<.<.3.3.n                                   ",
"                                        $ ' 5.<.<.<.<.<.<.<.<.<.<.<.<.<.<.<.<.<.<.<.1.<.1.3.C                                   ",
"                                        $ X.5.<.<.<.<.1.<.<.<.<.<.<.<.<.<.<.<.1.<.<.<.<.1.4.S                                   ",
"                                        = X.4.<.<.<.<.<.<.1.<.<.<.<.<.1.<.<.<.<.<.<.<.<.1.3.C                                   ",
"                                        = ] 4.<.<.<.1.<.<.<.<.<.<.3.<.<.<.<.3.<.<.<.1.<.1.3.N                                   ",
"                                        = ' 5.<.<.<.<.<.<.<.<.<.<.<.<.<.<.<.<.<.<.<.<.<.1.1.b                                   ",
"                                        o D 6.<.<.<.<.<.1.<.<.<.<.<.<.<.<.<.<.<.<.<.1.<.3.,.3                                   ",
"                                          v 5.3.<.<.<.<.<.<.1.<.<.<.<.<.<.<.<.<.<.<.<.1.6.' $                                   ",
"                                      O = 5 *.4.1.<.<.<.1.1.1.1.<.1.1.1.<.<.<.<.<.1.<.4.<.d X                                   ",
"                              X 4 l 0 i ) i o.6.3.3.<.<.1.1.,.4.1.1.1.1.3.<.<.3.1.1.1.,.d o                                     ",
"                              6 Z 5.G G q.F Z ,.1.4.4.4.5.3.S Q 4.4.5.4.4.4.4.4.4.4.5.,.B >                                     ",
"                              1 u C j u n s 8 k n N C A D W C 7 N C A D S S D A S S S S W <                                     "
};
